<svg xmlns="http://www.w3.org/2000/svg" viewBox="0 0 512 512">
  <rect width="512" height="512" fill="#1a1a2e"/>
  <rect x="56" y="56" width="400" height="400" fill="#0f0f1a" rx="20"/>
  <!-- Dungeon walls pattern -->
  <g fill="#333">
    <rect x="80" y="80" width="40" height="40"/>
    <rect x="120" y="80" width="40" height="40"/>
    <rect x="160" y="80" width="40" height="40"/>
    <rect x="200" y="80" width="40" height="40"/>
    <rect x="240" y="80" width="40" height="40"/>
    <rect x="280" y="80" width="40" height="40"/>
    <rect x="320" y="80" width="40" height="40"/>
    <rect x="360" y="80" width="40" height="40"/>
    <rect x="80" y="120" width="40" height="40"/>
    <rect x="360" y="120" width="40" height="40"/>
    <rect x="80" y="160" width="40" height="40"/>
    <rect x="360" y="160" width="40" height="40"/>
    <rect x="80" y="200" width="40" height="40"/>
    <rect x="80" y="240" width="40" height="40"/>
    <rect x="80" y="280" width="40" height="40"/>
    <rect x="360" y="280" width="40" height="40"/>
    <rect x="80" y="320" width="40" height="40"/>
    <rect x="360" y="320" width="40" height="40"/>
    <rect x="80" y="360" width="40" height="40"/>
    <rect x="120" y="360" width="40" height="40"/>
    <rect x="160" y="360" width="40" height="40"/>
    <rect x="200" y="360" width="40" height="40"/>
    <rect x="240" y="360" width="40" height="40"/>
    <rect x="280" y="360" width="40" height="40"/>
    <rect x="320" y="360" width="40" height="40"/>
    <rect x="360" y="360" width="40" height="40"/>
  </g>
  <!-- Player @ symbol -->
  <text x="256" y="280" font-family="monospace" font-size="180" font-weight="bold" fill="#f1fa8c" text-anchor="middle">@</text>
  <!-- Stairs indicator -->
  <text x="340" y="340" font-family="monospace" font-size="60" fill="#50fa7b" text-anchor="middle">&gt;</text>
</svg>
